<svg width="300" height="300" viewBox="0 0 300 300" fill="none" xmlns="http://www.w3.org/2000/svg">
<rect width="300" height="300" fill="#F5F5F5"/>
<circle cx="150" cy="150" r="150" fill="#FFC6C7"/>
<path d="M95.4347 84.614C89.8006 85.1262 88.776 94.1986 87.4241 98.4179C81.6891 116.318 83.6606 133.418 91.8228 150.558C97.7421 162.989 106.042 173.482 119.109 162.86C130.207 153.838 135.011 138.006 138.634 124.738C143.142 108.232 143.21 75.8442 123.007 68.6286C116.788 66.4078 108.237 66.8428 102.658 70.5955C91.6659 77.9905 88.9943 92.0318 86.4228 103.925" stroke="#594A4E" stroke-width="5" stroke-linecap="round"/>
<path d="M197.14 85.2577C188.687 85.2577 185.187 97.5943 183.408 104.283C179.038 120.708 177.072 142.035 184.731 157.746C190.329 169.23 203.548 174.847 212.482 164.04C223.141 151.146 227.423 135.379 229.647 119.124C230.461 113.179 231.802 107.02 231.471 100.993C231.185 95.7849 228.677 91.458 226.751 86.7597C224.158 80.436 216.344 74.6502 209.585 73.3134C194.561 70.3416 185.334 90.3541 182.335 101.35" stroke="#594A4E" stroke-width="5" stroke-linecap="round"/>
<path d="M96.0784 50.4976C96.0784 58.8911 96.9015 67.2925 98.0095 75.6021" stroke="#594A4E" stroke-width="5" stroke-linecap="round"/>
<path d="M114.746 48.5665C115.326 54.3651 117.058 60.698 117.964 66.5902" stroke="#594A4E" stroke-width="5" stroke-linecap="round"/>
<path d="M141.781 52.4287C141.781 54.9958 139.091 57.8105 137.919 59.9028C135.762 63.7542 134.086 67.8199 132.126 71.7399" stroke="#594A4E" stroke-width="5" stroke-linecap="round"/>
<path d="M184.266 58.8658C184.639 60.9149 186.454 62.9062 187.27 64.8021C189.303 69.5229 190.618 74.5231 191.991 79.4643" stroke="#594A4E" stroke-width="5" stroke-linecap="round"/>
<path d="M212.589 58.222C209.507 63.5455 210.014 70.9481 210.014 76.8895" stroke="#594A4E" stroke-width="5" stroke-linecap="round"/>
<path d="M241.556 63.3717C238.473 69.8799 234.924 76.1304 231.9 82.6829" stroke="#594A4E" stroke-width="5" stroke-linecap="round"/>
<path d="M184.266 120.018C182.446 115.694 183.856 108.781 185.196 104.569C186.857 99.3474 189.514 92.2192 192.42 87.6179C201.439 73.3377 211.859 90.8419 212.804 100.421C213.56 108.091 211.603 118.043 208.977 125.239C206.854 131.059 203.08 138.528 198.07 142.476C189.883 148.927 184.284 140.646 180.404 134.179" stroke="#594A4E" stroke-width="5" stroke-linecap="round"/>
<path d="M200.359 80.7517C200.677 78.2033 205.099 75.7317 207.439 76.5676C209.989 77.4781 212.243 79.3385 212.589 82.1107C212.708 83.0591 213.738 87.459 211.874 87.7252C208.263 88.2411 204.517 81.9199 204.9 78.8564C205.339 75.3443 213.98 83.9467 212.839 85.5438C212.001 86.718 209.798 81.2907 211.087 79.5716C213.573 76.2568 216.645 80.4284 217.703 82.504C218.117 83.3167 221.874 94.4557 218.883 93.9119C214.55 93.124 214.335 85.7807 216.451 83.0762C222.34 75.552 224.161 101.121 219.348 96.308C217.384 94.3438 214.893 88.413 216.201 85.6511C217.988 81.8794 221.589 92.4942 221.887 93.2682C222.28 94.29 226.327 106.567 223.139 105.32C219.27 103.806 219.357 96.9535 220.027 93.6974C221.033 88.8147 221.845 90.1688 222.888 94.3411C224.109 99.2228 226.433 107.516 224.14 112.293C223.334 113.972 221.209 102.859 221.315 101.064C221.423 99.2325 222.253 90.4519 224.569 95.4497C227.341 101.431 227.845 108.46 224.82 114.511C222.048 120.054 219.792 112.469 219.706 110.005C219.582 106.469 219.164 99.5677 221.959 96.7729C224.431 94.3004 226.882 107.231 227.001 107.93C227.683 111.932 227.786 115.866 226.679 119.803C226.665 119.853 224.998 125.07 223.961 123.844C221.657 121.121 224.051 111.374 224.14 108.109C224.27 103.353 224.457 98.7145 224.784 93.9835C224.856 92.9412 225.81 90.4861 224.426 91.4444C220.322 94.286 218.995 97.271 218.096 102.28C217.114 107.755 218.657 113.415 218.239 118.945C217.92 123.171 215.821 127.208 213.733 130.818C211.342 134.953 207.935 138.494 205.365 142.547C203.912 144.84 202.252 148.211 200.001 149.843C193.441 154.599 189.894 152.793 186.841 146.41C186.587 145.879 184.107 139.425 184.409 141.975C184.86 145.776 185.773 149.714 186.984 153.347C187.885 156.05 189.296 159.898 191.633 161.716C193.501 163.168 195.73 161.901 195.853 159.641C196.039 156.234 195.848 152.952 196.353 149.557C196.362 149.501 196.139 154.792 196.64 156.852C197.171 159.036 200.059 167.383 202.147 161.716C203.539 157.935 205.29 152.334 203.935 148.341C202.647 144.546 199.146 147.566 198.07 149.628C195.985 153.624 195.312 159.002 198.428 162.717C202.848 167.987 208.865 146.216 201.503 144.908C197.417 144.181 196.271 153.426 196.926 155.851C198.16 160.422 202.64 164.776 206.009 159.498C208.21 156.05 209.851 149.767 208.441 145.694C207.043 141.657 205.553 153.041 205.651 154.063C206.048 158.168 210.342 162.213 212.088 156.566C213.413 152.284 215.641 146.224 214.234 141.689C212.234 135.243 206.922 162.065 213.59 155.135C216.957 151.637 217.709 143.915 218.382 139.329C218.645 137.541 218.247 128.921 215.021 133.321C213.119 135.915 209.745 142.901 214.306 144.908C219.895 147.367 224.379 132.009 225.392 128.672C225.738 127.532 225.842 119.888 225.32 120.59C222.143 124.867 219.497 130.136 218.669 135.395C217.876 140.427 218.661 139.646 219.67 135.324C220.284 132.691 223.465 122.547 219.956 120.876C217.283 119.603 211.348 145.714 220.671 122.593C223.89 114.609 226.81 107.157 222.316 99.1331C220.574 96.0219 219.579 90.479 216.737 88.1544C214.281 86.1443 214.037 90.7759 214.27 92.2669C214.727 95.1935 217.092 97.4157 218.311 100.027C220.694 105.133 216.213 113.902 214.878 119.052C213.12 125.832 212.558 130.52 208.083 136.432C204.16 141.617 201.386 147.513 194.208 147.018C192.481 146.899 188.068 144.726 187.556 147.411C186.91 150.802 189.922 151.838 192.598 152.811C195.26 153.779 198.232 154.848 199.93 157.317C201.276 159.276 201.444 155.204 201.539 153.598C201.752 149.976 199.388 150.087 196.854 151.202C193.634 152.618 193.349 156.94 193.349 160.142C193.349 161.778 195.995 164.931 195.71 163.647C195.181 161.269 192.108 158.829 190.417 157.138C187.068 153.789 196.766 168.733 201.002 166.615C204.666 164.783 208.062 159.305 210.98 156.387C217.703 149.664 208.869 160.458 207.225 162.431C204.968 165.139 210.318 161.541 210.944 160.965C213.859 158.283 215.272 155.232 217.381 151.917C220.829 146.498 223.46 139.969 223.532 133.536C223.539 132.888 223.205 125.815 223.031 125.954C221.049 127.54 219.528 131.948 218.382 134.179C217.248 136.389 212.875 141.257 213.233 143.763C213.447 145.265 214.821 141.175 215.522 139.83C216.851 137.275 217.702 134.497 218.74 131.819C222.414 122.343 225.027 111.682 222.888 101.493C221.61 95.4006 218.448 84.2713 212.446 81.3954C209.706 80.0827 202.555 76.7821 199.715 79.4643C197.789 81.2833 195.825 82.4903 193.421 83.4696C190.792 84.5405 188.308 93.1332 187.485 95.557C183.695 106.716 180.387 118.258 181.834 130.317C182.567 136.425 185.902 151.612 194.136 151.917C195.036 151.95 194.252 150.186 194.708 149.771C196.338 148.289 199.954 149.347 201.932 148.698C211.978 145.408 214.139 133.516 216.809 124.667C219.445 115.93 223.087 107.84 222.388 98.6324C222.061 94.3329 226.151 88.5702 227.895 95.1994C228.022 95.682 228.55 100.511 229.182 100.421C229.718 100.344 227.963 97.8666 226.107 98.1318" stroke="#594A4E" stroke-width="5" stroke-linecap="round"/>
<path d="M225.463 96.2007C225.463 94.4802 226.612 89.5599 228.431 89.1557C229.926 88.8234 229.92 85.3187 231.4 83.4696C232.152 82.529 232.544 82.4832 232.544 81.1451C232.544 79.7691 233.381 84.575 232.186 85.2577C229.52 86.781 229.512 90.4911 228.682 92.9821" stroke="#594A4E" stroke-width="5" stroke-linecap="round"/>
<path d="M136.632 85.9014C136.766 84.8248 138.005 84.7786 137.919 83.3266C137.841 81.9925 135.523 80.5489 134.558 79.965C129.674 77.0118 123.559 83.0647 120.539 86.6881C116.027 92.1031 114.921 99.4093 113.959 106.142C112.849 113.911 107.276 122.529 111.563 130.031C116.872 139.321 122.85 139.919 131.768 134.823C132.113 134.626 133.908 132.383 133.413 133.25C132.581 134.706 133.033 136.126 132.448 137.648C131.648 139.728 131.703 141.414 130.517 143.513C128.919 146.339 126.849 148.649 125.188 151.416C121.941 156.828 120.214 162.343 114.102 165.077C108.272 167.685 103.475 159.375 101.729 155.279C98.7716 148.341 96.3898 141.321 96.7221 133.679C96.9492 128.455 97.798 144.163 99.44 149.128C101.255 154.616 107.072 160.372 110.24 152.453C110.77 151.128 114.408 136.807 110.168 138.22C105.548 139.761 105.885 151.495 107.129 154.992C109.631 162.03 114.337 152.221 114.674 149.02C115.192 144.105 112.455 143.001 110.526 148.126C109.841 149.947 108.381 163.086 113.745 158.569C116.082 156.6 123.36 145.573 121.04 142.19C118.572 138.591 114.388 155.158 114.388 156.566C114.388 162.859 121.023 152.215 121.755 150.951C122.184 150.211 124.854 141.695 122.864 143.906C121.2 145.755 122.962 147.925 124.759 145.408C125.559 144.289 129.587 140.879 129.158 141.689C128.373 143.172 125.043 147.193 123.472 144.765C121.104 141.106 120.591 144.801 118.537 148.055C115.665 152.601 112.48 158.922 107.021 156.387C101.514 153.83 96.5323 149.74 94.791 143.692C91.8442 133.456 93.3035 122.073 94.0042 111.65C94.6269 102.387 93.1899 88.6563 99.3684 81.0736C100.321 79.9047 104.495 76.3787 104.518 76.4961C105.747 82.642 106.959 92.5115 103.731 98.2748C102.837 99.8724 101.608 99.1742 101.228 97.7027C100.456 94.71 101.61 91.524 102.587 88.7265C103.172 87.0525 110.01 71.4154 112.028 79.8219C113.275 85.0186 109.241 100.893 108.952 95.557C108.658 90.113 111.371 82.214 115.246 78.2484C118.748 74.6657 115.82 84.0711 115.39 84.9716C113.203 89.544 116.009 81.1361 117.035 79.6074C117.836 78.4132 121.827 73.003 121.827 77.6763C121.827 80.8076 118.455 82.0588 120.039 78.8921C120.758 77.4538 122.807 70.8663 124.115 75.316C124.646 77.1218 121.068 82.1732 123.15 81.0021C132.104 75.9656 120.462 67.2067 114.102 71.8829C111.896 73.5053 103.506 77.2012 110.097 76.1027C110.576 76.0229 116.384 73.8985 114.746 73.1703C111.279 71.6293 106 73.3795 103.266 75.5663C100.825 77.5191 106.427 74.072 107.236 72.4551C107.457 72.012 102.22 78.4594 101.264 79.8219C99.0745 82.9416 97.6198 86.1683 97.6519 90.0497C97.6628 91.3683 98.0361 97.0259 100.62 96.2722C104.011 95.2833 106.306 83.8001 106.306 87.3318C106.306 93.9661 99.7661 100.246 100.727 107.215C101.082 109.789 104.022 106.806 104.59 106.071C106.793 103.217 107.938 99.6725 109.203 96.3437C112.512 87.6358 109.655 98.6393 108.595 101.565C107.41 104.835 105.455 108.321 105.877 111.936C106.144 114.226 108.818 106.12 108.952 105.642C110.505 100.122 111.838 93.6394 114.102 88.4047C114.111 88.385 111.93 96.5155 111.384 98.9185C109.947 105.255 109.416 111.69 108.309 118.087C107.6 122.179 105.809 127.027 108.309 130.818C110.355 133.92 111.915 137.665 113.959 140.974C116.539 145.152 114.942 142.24 114.102 139.544C113.868 138.79 111.459 133.868 112.6 134.966C115.266 137.533 118.069 139.729 121.433 141.224C126.104 143.3 129.094 139.171 132.698 136.468C135.957 134.024 128.098 143.776 124.366 145.408C117.19 148.548 112.172 144.411 109.954 137.755C107.736 131.103 106.293 123.632 105.77 116.656C105.647 115.023 106.184 97.378 103.946 105.642C101.48 114.747 101.425 125.388 101.514 134.751C101.56 139.519 101.99 144.409 103.409 148.985C104.122 151.281 103.031 145.058 103.016 144.979C100.918 134.069 99.7751 122.656 101.228 111.578C101.534 109.245 101.764 107.553 101.908 110.934C102.197 117.733 102.439 124.631 103.517 131.354C104.078 134.852 105.09 138.404 105.09 141.975C105.09 144.801 104.28 136.379 103.731 133.607C102.404 126.895 101.172 120.193 100.084 113.438C99.8057 111.712 99.5496 106.375 97.7234 105.213C97.01 104.759 96.5944 112.918 96.579 113.223C96.2769 119.2 96.2134 125.161 96.0426 131.14C95.9258 135.227 95.4576 133.941 95.4347 130.889C95.3839 124.13 95.2618 117.33 95.5777 110.577C95.6116 109.852 96.3322 96.3592 95.4347 96.9874C93.2588 98.5106 92.9218 104.117 92.5738 106.321C91.7649 111.444 90.9755 116.594 90.285 121.734C90.1305 122.884 89.6413 127.519 89.6413 127.456C89.6413 124.302 89.6092 121.16 89.9274 118.015C90.4196 113.151 91.0478 108.282 91.6082 103.424C91.8532 101.302 93.0464 98.59 92.2162 96.4868C90.9219 93.2079 90.4643 101.138 90.4281 101.493C90.027 105.424 89.3172 109.29 88.6758 113.187C88.2898 115.533 86.2039 122.18 87.5671 120.232C88.7395 118.558 88.7577 114.249 89.3552 112.258C90.6435 107.963 92.0251 103.699 93.3605 99.4192C94.2604 96.5355 95.5457 93.4764 96.0069 90.4788C96.4679 87.4817 96.0131 88.8312 95.7208 91.3371C95.5473 92.8241 94.9632 107.92 98.3671 100.885C101.205 95.0211 103.579 88.8407 106.664 83.112C109.927 77.0517 106.413 85.2182 106.199 87.1888C106.169 87.4597 106.725 92.8872 108.023 91.2656C109.383 89.5655 109.893 85.8241 110.741 83.7557C112.704 78.9645 106.992 89.7941 109.382 89.3345C112.299 88.7735 114.601 84.1152 116.534 82.1822C118.828 79.8882 114.933 82.8478 113.959 83.4696C109.094 86.5751 104.047 91.2556 99.6545 95.0205C91.7401 101.804 90.8228 115.273 91.8943 124.917C92.449 129.909 91.8366 134.995 92.8956 139.937C93.2882 141.769 96.6976 148.646 96.0069 143.12C95.5395 139.381 94.1335 129.649 90.3923 127.778C88.5939 126.879 90.7884 134.44 90.9287 134.966C92.0442 139.149 93.3842 143.273 94.3976 147.483C96.2438 155.151 95.9533 149.168 94.8267 144.944C92.4685 136.1 94.9834 146.986 95.7208 149.914C96.5379 153.159 97.4913 156.773 99.583 159.463C99.9107 159.884 101.586 161.945 101.586 160.142C101.586 159.273 100.342 157.437 101.764 157.746C103.915 158.214 105.825 158.459 108.023 158.139C116.629 156.888 110.17 140.075 108.631 140.759C103.014 143.256 110.418 151.488 107.915 153.49C106.447 154.665 108.935 159.945 107.665 161.215" stroke="#594A4E" stroke-width="5" stroke-linecap="round"/>
<path d="M128.907 79.4643C128.907 77.5092 132.131 78.1954 129.265 76.6034C125.048 74.2605 121.633 67.1513 118.644 75.7451C118.434 76.3498 116.518 85.6022 117.678 85.4365C119.333 85.2001 119.895 80.289 119.895 79.1067C119.895 78.2099 119.154 75.6605 117.821 76.5319C114.989 78.3837 114.818 83.1899 115.139 86.0802C116.091 94.6464 118.371 79.5352 114.424 78.9279C109.431 78.1597 101.305 83.2679 98.3671 87.0458C96.0851 89.9797 95.3615 93.2292 94.934 96.9159C94.3276 102.146 97.0355 94.6783 97.4016 93.6259C97.8811 92.2473 101.514 84.5985 100.155 83.4339C98.0751 81.6509 94.989 87.1437 94.5764 88.1901C93.6724 90.4824 91.061 94.9279 91.3579 97.345C91.8813 101.608 94.4455 95.5171 94.791 94.6272C95.9605 91.6149 96.9811 87.5101 97.0797 84.2564C97.1782 81.0058 96.6727 90.7497 96.3287 93.9835C95.625 100.598 93.2049 107.359 91.0718 113.581C90.393 115.56 88.6275 116.421 89.1407 118.73C89.6032 120.812 90.5179 122.178 88.9976 123.916C84.6751 128.856 93.3792 134.074 95.3989 138.113C98.4074 144.13 100.732 150.797 104.59 156.351C108.301 161.696 113.555 161.215 119.252 161.215" stroke="#594A4E" stroke-width="5" stroke-linecap="round"/>
<path d="M221.601 123.236C221.385 119.353 219.942 115.579 219.169 111.793C218.601 109.01 219.384 106.192 218.525 103.424C218.023 101.806 217.162 100.311 217.095 98.6325C217.017 96.6723 216.82 98.3349 216.809 99.4192C216.768 103.271 216.729 107.316 216.308 111.149C216.086 113.175 213.23 117.802 215.164 117.157C216.332 116.768 218.02 112.627 218.382 111.507C219.85 106.964 221.057 101.928 221.744 97.202C222.362 92.9522 222.219 76.7083 224.176 90.4073" stroke="#594A4E" stroke-width="5" stroke-linecap="round"/>
<path d="M170.105 166.365C166.352 162.612 160.103 161.227 154.977 162.252C146.278 163.992 143.061 168.142 142.103 176.378C141.278 183.474 146.598 189.457 154.012 189.538C159.973 189.604 165.45 185.825 169.461 181.814" stroke="#594A4E" stroke-width="5" stroke-linecap="round"/>
<path d="M63.2494 181.17C62.0726 179.846 62.0062 179.289 63.2852 181.527C67.6121 189.1 74.5179 194.611 80.701 200.588C89.2094 208.813 97.0495 218.225 106.7 225.156C116.971 232.535 129.122 237.16 141.495 239.425C152.71 241.479 164.208 241.304 175.111 237.53C185.525 233.925 197.545 228.663 204.865 220.15C211.932 211.93 220.312 203.689 224.533 193.543C226.785 188.13 228.789 182.136 230.613 176.664" stroke="#594A4E" stroke-width="5" stroke-linecap="round"/>
<path d="M227.394 174.089C230.36 171.453 246.093 186.857 247.993 190.182" stroke="#594A4E" stroke-width="5" stroke-linecap="round"/>
<path d="M69.0428 171.514C65.4708 173.987 64.029 177.951 60.8891 180.812C58.364 183.113 55.3044 186.981 54.2375 190.182" stroke="#594A4E" stroke-width="5" stroke-linecap="round"/>
<path d="M133.413 90.4073C133.413 81.4931 126.288 90.2222 123.615 92.3384C122.476 93.2395 123.04 94.5403 121.97 95.7C120.938 96.8172 119.127 99.058 118.608 100.421C117.194 104.133 116.033 107.332 116.033 111.364C116.033 118.224 113.378 129.865 121.898 133.178C125.707 134.659 130.699 130.742 131.983 127.242C134.573 120.176 135.074 114.043 134.987 106.5C134.915 100.271 132.549 73.7967 123.758 89.6206C118.082 99.8373 111.684 117.524 118.322 128.386C122.933 135.931 128.835 124.892 130.338 121.162C133.318 113.766 135.598 103.136 131.983 95.6285C126.522 84.2869 119.797 102.186 118.68 107.93C117.875 112.068 116.27 123.98 123.472 124.238C127.908 124.396 130.766 112.549 131.411 109.683C131.639 108.666 134.253 95.4565 131.446 95.8073C130.059 95.9808 128.519 99.4929 127.906 100.421C125.152 104.591 123.652 108.677 122.899 113.652C122.702 114.955 121.144 128.257 125.546 122.02C129.147 116.918 130.767 107.638 130.767 101.458C130.767 94.8004 126.78 103.984 125.975 105.677C124.221 109.366 122.948 113.152 122.292 117.193C122.29 117.201 121.345 124.325 122.613 123.808C126.728 122.132 128.121 107.497 128.121 103.746C128.121 94.9486 124.865 103.158 123.901 106.428C122.956 109.63 119.582 119.386 121.469 122.664C123.007 125.335 127.427 110.274 127.62 109.432C127.85 108.429 130.18 99.4962 126.261 100.921C120.577 102.988 119.208 112.143 119.252 117.085C119.303 122.821 123 118.693 124.187 115.941C126.66 110.204 128.303 103.918 131.089 98.3464C131.158 98.2085 124.517 120.471 125.045 120.912C125.561 121.341 129.493 105.954 127.978 106.285C125.177 106.898 123.073 113.211 122.399 115.369C121.648 117.772 120.058 125.741 123.865 120.411C128.905 113.355 129.689 86.2164 128.264 94.7702C127.976 96.4953 128.695 111.563 131.125 105.82C132.461 102.662 132.286 99.0993 133.413 95.8431C134.07 93.9467 135.344 86.6283 135.344 91.802C135.344 100.312 135.843 110.548 133.378 118.766C132.432 121.918 130.816 125.827 127.477 127.099C124.642 128.178 118.608 126.93 118.608 123.236" stroke="white" stroke-width="5" stroke-linecap="round"/>
<path d="M201.002 87.8325C200.52 83.9762 195.251 95.0316 195.245 95.0563C194.017 99.7647 191.215 103.784 190.739 108.789C190.423 112.108 186.467 114.855 187.342 118.23C187.86 120.23 186.243 122.876 186.197 124.953C186.133 127.842 186.404 130.029 187.342 132.749C188.337 135.635 192.923 137.129 195.853 136.397C201.137 135.075 201.502 129.807 203.255 125.132C205.602 118.873 204.979 111.77 205.794 105.248C206.449 100.009 202.926 94.9225 201.646 90.1212C199.768 83.0796 196.491 91.3886 194.708 93.4828C191.222 97.5792 192.567 104.81 189.916 109.075C186.657 114.319 188.863 120.964 188.093 126.741C187.714 129.577 186.91 133.927 189.273 135.86C199.039 143.851 206.04 116.1 206.152 110.362C206.25 105.369 206.478 99.783 205.365 94.9133C204.935 93.0295 199.088 84.9579 203.434 88.4762C206.116 90.6469 209.515 97.0899 209.621 100.385C209.806 106.133 206.682 111.246 206.116 116.907C205.68 121.27 197.84 140.498 192.634 138.185C191.142 137.522 189.279 138.538 187.806 137.72C185.729 136.565 186.949 132.303 187.127 130.281C187.997 120.423 190.486 111.806 192.634 102.137C194.096 95.5606 202.401 87.5284 202.898 99.2046C203.18 105.827 202.161 112.473 200.716 118.909C199.799 122.996 199.967 130.214 196.496 133.106C192.908 136.097 194.172 127.474 194.065 125.74C193.627 118.667 194.328 109.067 198.141 102.924C201.313 97.8139 200.737 104.915 200.359 107.144C199.691 111.075 198.616 114.882 197.462 118.695C196.755 121.03 196.216 125.447 194.422 127.313C193.849 127.91 193.786 125.698 193.922 124.881C194.612 120.738 194.896 116.617 195.245 112.436C195.594 108.241 198.987 96.0387 198.392 100.206C197.434 106.91 194.677 113.152 193.922 119.946C193.874 120.375 192.669 127.814 193.278 127.814C194.293 127.814 194.843 120.608 194.959 119.982C196.189 113.358 198.936 106.063 198.785 99.2762C198.748 97.6042 197.48 97.8378 196.783 98.9543C194.804 102.12 193.743 106.014 192.777 109.575C191.694 113.57 190.105 118.181 190.524 122.378C190.717 124.307 191.679 126.391 192.92 123.808C196.408 116.55 197.922 109.213 198.928 101.279C199.251 98.7327 199.105 101.193 199 102.137C198.611 105.637 197.409 109.167 196.353 112.508C194.531 118.28 192.959 124.327 193.278 130.389C193.28 130.422 193.221 129.663 192.634 129.781C192.072 129.893 191.237 131.269 190.989 131.748C190.589 132.522 190.999 136.406 191.347 136.754" stroke="white" stroke-width="5" stroke-linecap="round"/>
<path d="M249.28 152.847C245.067 149.4 238.204 152.978 236.406 157.496C231.564 169.664 254.704 164.256 258.006 156.709C261.523 148.67 252.577 144.443 246.884 149.557C243.166 152.897 239.083 157.055 238.766 162.359C238.464 167.434 242.543 173.037 248.064 172.086C258.152 170.349 264.426 159.279 263.299 149.7C261.768 136.684 245.42 148.755 244.274 156.173C243.418 161.711 245.937 167.796 252.356 167.58C258.248 167.383 262.678 161.89 264.801 156.924C269.416 146.127 254.627 146.147 248.601 149.378C243.331 152.204 236.095 167.542 246.205 168.331C254.775 169.001 264.585 150.564 254.859 146.91C250.228 145.171 243.805 145.81 241.306 150.487C239.693 153.504 237.629 158.54 238.91 162.002C242.467 171.615 254.758 165.212 256.862 158.318C259.092 151.008 253.194 146.817 247.528 152.632C243.816 156.442 245.866 167.232 249.781 159.784C254.118 151.534 244.951 155.216 248.1 160.464C249.647 163.042 253.04 160.055 250.568 163.146" stroke="#FF8BA7" stroke-opacity="0.5" stroke-width="5" stroke-linecap="round"/>
<path d="M60.0309 145.766C51.5637 138.24 35.6495 156.075 44.1885 164.004C52.1714 171.417 63.9224 157.624 66.6825 150.844C69.8215 143.133 61.5222 138.896 55.0243 141.046C48.6944 143.14 39.9022 151.429 40.6482 158.676C41.7148 169.037 53.8799 167.205 59.2441 161.394C61.873 158.546 64.7707 154.254 63.8216 150.129C62.9829 146.484 59.7373 144.081 56.0613 145.337C50.2742 147.315 43.466 152.832 42.2932 159.141C41.7202 162.223 42.6054 167.736 45.7978 169.297C54.7205 173.659 61.8391 160.667 63.3209 154.063C65.7959 143.031 55.511 147.051 51.4481 152.704C48.8883 156.265 46.6961 167.9 54.8454 163.826C59.3077 161.594 64.2239 147.334 56.4905 152.489C54.0293 154.13 51.7877 156.723 51.913 159.856C51.9939 161.879 53.6386 164.914 55.811 162.86C57.0381 161.7 63.0816 148.985 57.5991 150.057C52.9061 150.976 53.0405 159.909 55.8825 157.067C57.131 155.818 57.6224 149.884 55.5249 154.778" stroke="#FF8BA7" stroke-opacity="0.5" stroke-width="5" stroke-linecap="round"/>
</svg>
