<svg width="351" height="43" viewBox="0 0 351 43" fill="none" xmlns="http://www.w3.org/2000/svg">
<path d="M22.68 3.21599L34.008 25.808L32.216 3.21599H47L43.8 42H25.048L14.296 20.88L12.184 42H3.79998L0.599976 3.21599H22.68ZM54.833 38.864C51.761 36.304 50.225 32.2507 50.225 26.704C50.225 21.1573 51.761 17.1253 54.833 14.608C57.9477 12.048 62.0863 10.768 67.249 10.768C72.4117 10.768 76.529 12.048 79.601 14.608C82.7157 17.1253 84.273 21.1573 84.273 26.704C84.273 32.2507 82.7157 36.304 79.601 38.864C76.529 41.3813 72.4117 42.64 67.249 42.64C62.0863 42.64 57.9477 41.3813 54.833 38.864ZM64.561 19.472C64.049 20.9227 63.793 23.3333 63.793 26.704C63.793 30.0747 64.049 32.5067 64.561 34C65.073 35.4507 65.969 36.176 67.249 36.176C68.529 36.176 69.425 35.4507 69.937 34C70.449 32.5067 70.705 30.0747 70.705 26.704C70.705 23.3333 70.449 20.9227 69.937 19.472C69.425 17.9787 68.529 17.232 67.249 17.232C65.969 17.232 65.073 17.9787 64.561 19.472ZM104.755 30.608C104.712 33.0827 105.587 34.32 107.379 34.32C107.891 34.32 108.51 34.0853 109.235 33.616L110.579 39.824C110.323 40.0373 109.96 40.3147 109.491 40.656C109.064 40.9547 108.104 41.36 106.611 41.872C105.16 42.384 103.646 42.64 102.067 42.64C99.1657 42.64 96.7977 41.6587 94.963 39.696C93.1283 37.6907 92.147 35.152 92.019 32.08L91.443 19.984H86.515L87.283 11.664H91.123L90.867 5.39199L106.035 2.31999L105.587 11.664H109.299L110.067 19.984H105.203L104.755 30.608ZM118.708 38.864C115.636 36.304 114.1 32.2507 114.1 26.704C114.1 21.1573 115.636 17.1253 118.708 14.608C121.823 12.048 125.961 10.768 131.124 10.768C136.287 10.768 140.404 12.048 143.476 14.608C146.591 17.1253 148.148 21.1573 148.148 26.704C148.148 32.2507 146.591 36.304 143.476 38.864C140.404 41.3813 136.287 42.64 131.124 42.64C125.961 42.64 121.823 41.3813 118.708 38.864ZM128.436 19.472C127.924 20.9227 127.668 23.3333 127.668 26.704C127.668 30.0747 127.924 32.5067 128.436 34C128.948 35.4507 129.844 36.176 131.124 36.176C132.404 36.176 133.3 35.4507 133.812 34C134.324 32.5067 134.58 30.0747 134.58 26.704C134.58 23.3333 134.324 20.9227 133.812 19.472C133.3 17.9787 132.404 17.232 131.124 17.232C129.844 17.232 128.948 17.9787 128.436 19.472ZM193.603 42L191.043 35.536H174.723L172.291 42H163.203L174.019 3.21599H196.803L207.619 42H193.603ZM187.779 27.216L182.723 14.416L177.859 27.216H187.779ZM236.696 32.4C236.696 34.832 235.885 36.8587 234.264 38.48C232.643 40.1013 230.765 41.2107 228.632 41.808C226.541 42.3627 224.515 42.64 222.552 42.64C220.589 42.64 218.861 42.512 217.368 42.256C215.917 42 214.68 41.7013 213.656 41.36C211.779 40.6347 210.285 39.952 209.176 39.312L208.6 38.928L211.416 33.104C213.976 34.5547 216.131 35.28 217.88 35.28C219.629 35.28 220.504 34.5547 220.504 33.104C220.504 32.3787 219.949 31.632 218.84 30.864C217.731 30.096 216.515 29.3707 215.192 28.688C213.912 28.0053 212.717 26.96 211.608 25.552C210.499 24.144 209.944 22.5227 209.944 20.688C209.944 17.4027 211.181 14.928 213.656 13.264C216.131 11.6 219.395 10.768 223.448 10.768C225.496 10.768 227.501 10.9387 229.464 11.28C231.427 11.6213 232.899 11.9627 233.88 12.304L235.288 12.88L233.688 19.344C231.256 18.448 229.187 18 227.48 18C225.773 18 224.92 18.6613 224.92 19.984C224.92 20.624 225.325 21.2427 226.136 21.84C226.947 22.3947 227.928 22.9493 229.08 23.504C230.232 24.0587 231.384 24.6987 232.536 25.424C233.688 26.1067 234.669 27.0667 235.48 28.304C236.291 29.4987 236.696 30.864 236.696 32.4ZM252.329 42.64C244.265 42.64 240.233 37.1573 240.233 26.192C240.233 23.248 240.723 18.4053 241.705 11.664H254.121V25.488C254.121 30.4373 255.507 32.912 258.281 32.912C260.713 32.912 261.929 30.6933 261.929 26.256C261.929 25.9147 261.929 25.552 261.929 25.168L261.353 11.664H275.753L274.409 42H263.593L262.889 36.112C262.803 36.2827 262.697 36.5173 262.569 36.816C262.441 37.1147 262.078 37.648 261.481 38.416C260.926 39.1413 260.286 39.8027 259.561 40.4C258.835 40.9547 257.833 41.4667 256.553 41.936C255.273 42.4053 253.865 42.64 252.329 42.64ZM304.312 42C299.234 37.0933 295.65 33.616 293.56 31.568L293.112 42H281.336L279.608 0.463989H294.84L294.072 20.176L300.536 11.664H313.464L304.44 24.336L314.744 42H304.312ZM326.989 42.64C323.704 42.64 320.994 41.68 318.861 39.76C316.77 37.84 315.725 35.1307 315.725 31.632C315.725 28.0907 316.92 25.5307 319.309 23.952C321.698 22.3307 324.578 21.52 327.949 21.52C331.32 21.52 334.242 22.0533 336.717 23.12C336.162 19.5787 333.922 17.808 329.997 17.808C328.205 17.808 325.986 18.1707 323.341 18.896L321.741 13.136C325.581 11.5573 329.485 10.768 333.453 10.768C344.888 10.768 350.605 15.632 350.605 25.36C350.605 28.688 350.221 33.296 349.453 39.184L349.133 42H338.573L338.189 38.48C335.288 41.2533 331.554 42.64 326.989 42.64ZM332.749 34.704C334.669 34.704 336.312 34.1707 337.677 33.104L337.293 28.88C336.226 28.1547 335.032 27.792 333.709 27.792C332.429 27.792 331.362 28.112 330.509 28.752C329.698 29.392 329.293 30.1813 329.293 31.12C329.293 32.0587 329.613 32.8907 330.253 33.616C330.893 34.3413 331.725 34.704 332.749 34.704Z" fill="#FF8BA7"/>
</svg>
